<?xml version="1.0" encoding="UTF-8" standalone="no"?>
<!-- Created with Inkscape (http://www.inkscape.org/) -->

<svg
   width="200mm"
   height="200mm"
   viewBox="0 0 200 200"
   version="1.1"
   id="svg5"
   xml:space="preserve"
   inkscape:version="1.2 (dc2aedaf03, 2022-05-15)"
   sodipodi:docname="github-square.svg"
   xmlns:inkscape="http://www.inkscape.org/namespaces/inkscape"
   xmlns:sodipodi="http://sodipodi.sourceforge.net/DTD/sodipodi-0.dtd"
   xmlns="http://www.w3.org/2000/svg"
   xmlns:svg="http://www.w3.org/2000/svg"><sodipodi:namedview
     id="namedview7"
     pagecolor="#ffffff"
     bordercolor="#000000"
     borderopacity="0.25"
     inkscape:showpageshadow="2"
     inkscape:pageopacity="0.0"
     inkscape:pagecheckerboard="0"
     inkscape:deskcolor="#d1d1d1"
     inkscape:document-units="mm"
     showgrid="false"
     inkscape:zoom="0.74564394"
     inkscape:cx="381.5494"
     inkscape:cy="347.35077"
     inkscape:window-width="1920"
     inkscape:window-height="1017"
     inkscape:window-x="-8"
     inkscape:window-y="-8"
     inkscape:window-maximized="1"
     inkscape:current-layer="layer1" /><defs
     id="defs2" /><g
     inkscape:label="Layer 1"
     inkscape:groupmode="layer"
     id="layer1"><path
       d="m 52.013534,159.47712 q -1.039215,1.16911 -2.598035,-0.38971 -1.688722,-1.42892 -0.519606,-2.46813 1.039215,-1.16912 2.598036,0.3897 1.55882,1.42892 0.519605,2.46814 z m -5.455872,-7.92401 q 1.169115,1.55882 0,2.46813 -1.039216,0.77941 -2.208331,-0.90931 -1.169115,-1.68872 0,-2.33823 1.169115,-0.90931 2.208331,0.77941 z m -7.924003,-7.7941 q -0.649511,0.90931 -1.688725,0.2598 -1.299016,-0.64951 -0.909311,-1.55882 0.389705,-0.64951 1.688721,-0.2598 1.29902,0.64951 0.909315,1.55882 z m 4.026951,4.41666 q -0.77941,0.90931 -2.078425,-0.38971 -1.169116,-1.42892 -0.259805,-2.07843 0.77941,-0.77941 2.078426,0.38971 1.169114,1.42892 0.259804,2.07843 z m 16.757322,14.54899 q -0.519606,1.55881 -2.468132,0.77941 -2.20833,-0.51961 -1.688725,-1.94853 0.51961,-1.42891 2.468136,-0.90931 2.078426,0.64951 1.688721,2.07843 z m 8.183808,0.64951 q 0,1.42891 -2.078426,1.42891 -2.208331,0.25981 -2.208331,-1.42891 0,-1.42892 2.078426,-1.42892 2.208331,-0.25981 2.208331,1.42892 z m 7.534302,-1.29902 q 0.259807,1.29902 -1.818626,1.81863 -2.07843,0.5196 -2.338232,-1.03922 -0.259804,-1.55882 1.818625,-1.94853 2.078434,-0.2598 2.338233,1.16912 z M 200.3613,37.889113 V 162.59476 q 0,15.4583 -10.9767,26.435 -10.97669,10.97669 -26.43499,10.97669 h -29.09799 q -2.07842,0 -3.18259,-0.1299 -1.10417,-0.1299 -2.53309,-0.64951 -1.42891,-0.51961 -2.07842,-1.88357 -0.64951,-1.36398 -0.64951,-3.57231 v -31.0465 q 0,-12.60047 -6.7549,-18.44605 7.40441,-0.7794 13.31493,-2.33823 5.91053,-1.55881 12.21076,-5.06616 6.30024,-3.50735 10.52205,-8.63847 4.2218,-5.13111 6.88478,-13.63968 2.663,-8.50856 2.663,-19.550209 0,-15.718103 -10.26224,-26.759744 4.80636,-11.82106 -1.03922,-26.49995 -3.63725,-1.169115 -10.52204,1.428911 -6.88479,2.598041 -11.95095,5.715681 l -4.93627,3.117638 q -12.08086,-3.377441 -24.94113,-3.377441 -12.860267,0 -24.941131,3.377441 -2.07843,-1.428918 -5.52083,-3.507346 -3.442389,-2.078421 -10.846787,-5.001214 -7.404398,-2.922785 -11.17155,-1.75367 -5.715676,14.67889 -0.90931,26.49995 -10.262238,11.041641 -10.262238,26.759744 0,11.041649 2.662985,19.485249 2.662986,8.44362 6.819843,13.63969 4.156851,5.19607 10.457084,8.70342 6.300237,3.50735 12.210764,5.06616 5.910529,1.55883 13.314933,2.33823 -5.196067,4.67646 -6.365183,13.37988 -2.727944,1.29902 -5.845585,1.94853 -3.11764,0.64951 -7.404396,0.64951 -4.286757,0 -8.508564,-2.79289 -4.221807,-2.79289 -7.209548,-8.11886 -2.46813,-4.15686 -6.300232,-6.75489 -3.832101,-2.59803 -6.430133,-3.11764 l -2.598035,-0.3897 q -2.727937,0 -3.76715,0.58456 -1.039214,0.58455 -0.649508,1.49386 0.389704,0.90931 1.169114,1.81862 0.779411,0.90932 1.688722,1.55882 l 0.909313,0.64951 q 2.857839,1.29902 5.650725,4.93627 2.792886,3.63725 4.091902,6.62499 l 1.29902,2.98774 q 1.688721,4.93626 5.715672,7.98895 4.026957,3.05269 8.703419,3.89706 4.676461,0.84435 9.028167,0.90931 4.35171,0.0649 7.209546,-0.45466 l 2.987743,-0.5196 q 0,4.93625 0.06492,13.37987 0.06492,8.44362 0.06492,8.83331 0,2.85784 -1.428922,4.35172 -1.428921,1.49386 -2.85784,1.68872 -1.428919,0.19485 -4.286759,0.19485 H 38.243954 q -15.458305,0 -26.434999,-10.97669 -10.97669364,-10.9767 -10.97669364,-26.435 V 37.889113 q 0,-15.458304 10.97669364,-26.435 Q 22.785649,0.47741788 38.243954,0.47741788 H 162.94961 q 15.4583,0 26.43499,10.97669512 10.9767,10.976696 10.9767,26.435 z"
       id="path182"
       style="stroke-width:0.129901" /></g></svg>
