<?xml version="1.0" encoding="UTF-8" standalone="no"?>
<!-- Created with Inkscape (http://www.inkscape.org/) -->

<svg
   width="200mm"
   height="200mm"
   viewBox="0 0 200 200"
   version="1.1"
   id="svg5"
   xml:space="preserve"
   inkscape:version="1.2 (dc2aedaf03, 2022-05-15)"
   sodipodi:docname="youtube-square-highlight.svg"
   xmlns:inkscape="http://www.inkscape.org/namespaces/inkscape"
   xmlns:sodipodi="http://sodipodi.sourceforge.net/DTD/sodipodi-0.dtd"
   xmlns="http://www.w3.org/2000/svg"
   xmlns:svg="http://www.w3.org/2000/svg"><sodipodi:namedview
     id="namedview7"
     pagecolor="#ffffff"
     bordercolor="#000000"
     borderopacity="0.25"
     inkscape:showpageshadow="2"
     inkscape:pageopacity="0.0"
     inkscape:pagecheckerboard="0"
     inkscape:deskcolor="#d1d1d1"
     inkscape:document-units="mm"
     showgrid="false"
     inkscape:zoom="0.74564394"
     inkscape:cx="381.5494"
     inkscape:cy="400.32512"
     inkscape:window-width="1121"
     inkscape:window-height="778"
     inkscape:window-x="-2"
     inkscape:window-y="108"
     inkscape:window-maximized="0"
     inkscape:current-layer="layer1" /><defs
     id="defs2" /><g
     inkscape:label="Layer 1"
     inkscape:groupmode="layer"
     id="layer1"><g
       style="clip-rule:evenodd;fill-rule:evenodd;stroke-linejoin:round;stroke-miterlimit:2;fill:#ffc107;fill-opacity:1"
       id="g4898"
       transform="matrix(0.39002436,0,0,0.39002436,0.39569965,0.7505389)"><path
         d="M 449.446,0 C 483.971,0 512,28.03 512,62.554 V 449.446 C 512,483.97 483.97,512 449.446,512 H 62.554 C 28.03,512 0,483.97 0,449.446 V 62.554 C 0,28.03 28.029,0 62.554,0 Z M 428.479,175.63 C 424.34,160.141 412.142,147.943 396.653,143.804 368.575,136.28 256,136.28 256,136.28 c 0,0 -112.575,0 -140.653,7.524 C 99.861,147.943 87.661,160.141 83.521,175.63 76,203.705 76,262.282 76,262.282 c 0,0 0,58.576 7.521,86.648 4.14,15.489 16.34,27.69 31.826,31.829 28.078,7.521 140.653,7.521 140.653,7.521 0,0 112.575,0 140.653,-7.521 15.489,-4.139 27.687,-16.34 31.826,-31.829 C 436,320.858 436,262.282 436,262.282 c 0,0 0,-58.577 -7.521,-86.652 z M 219.998,316.283 V 208.281 l 93.53,54.001 z"
         id="path4889"
         style="fill:#ffc107;fill-opacity:1" /></g></g></svg>
