<?xml version="1.0" encoding="UTF-8" standalone="no"?>
<!-- Created with Inkscape (http://www.inkscape.org/) -->

<svg
   xmlns:dc="http://purl.org/dc/elements/1.1/"
   xmlns:cc="http://creativecommons.org/ns#"
   xmlns:rdf="http://www.w3.org/1999/02/22-rdf-syntax-ns#"
   xmlns:svg="http://www.w3.org/2000/svg"
   xmlns="http://www.w3.org/2000/svg"
   xmlns:sodipodi="http://sodipodi.sourceforge.net/DTD/sodipodi-0.dtd"
   xmlns:inkscape="http://www.inkscape.org/namespaces/inkscape"
   version="1.1"
   id="svg4115"
   xml:space="preserve"
   width="100"
   height="100"
   viewBox="0 0 100 100"
   sodipodi:docname="ytRoundLogo.svg"
   inkscape:version="0.92.4 (5da689c313, 2019-01-14)"><metadata
     id="metadata4121"><rdf:RDF><cc:Work
         rdf:about=""><dc:format>image/svg+xml</dc:format><dc:type
           rdf:resource="http://purl.org/dc/dcmitype/StillImage" /><dc:title></dc:title></cc:Work></rdf:RDF></metadata><defs
     id="defs4119"><clipPath
       clipPathUnits="userSpaceOnUse"
       id="clipPath4131"><path
         d="M 0,255.118 H 550.024 V 0 H 0 Z"
         id="path4129"
         inkscape:connector-curvature="0" /></clipPath><style
       id="style4221">.cls-1{fill:#262626;}.cls-2,.cls-3{fill:#fff;}.cls-3{fill-rule:evenodd;}.cls-4{fill:#929292;}.cls-5{fill:#25d366;}.cls-6{fill:#ee1d52;}.cls-7{fill:#69c9d0;}.cls-8{fill:#e52d27;}.cls-9{fill:#d41d20;}.cls-10{fill:#55acee;}.cls-11{fill:#3b445c;}.cls-12{fill:#ea4b24;}.cls-13{fill:#ffea00;}.cls-14{fill:#ff4500;}.cls-15{fill:#bd081c;}.cls-16{fill:#0076b2;}.cls-17{fill:#d50060;}.cls-18{fill:#dc4b3e;}.cls-19{fill:#3f91cb;}.cls-20{fill:#3a5a99;}.cls-21{fill:#ea4c89;}.cls-22{fill:#05cc47;}.cls-23{fill:#1d6fed;}</style></defs><sodipodi:namedview
     pagecolor="#ffffff"
     bordercolor="#666666"
     borderopacity="1"
     objecttolerance="10"
     gridtolerance="10"
     guidetolerance="10"
     inkscape:pageopacity="0"
     inkscape:pageshadow="2"
     inkscape:window-width="1920"
     inkscape:window-height="1017"
     id="namedview4117"
     showgrid="false"
     inkscape:zoom="1.7892472"
     inkscape:cx="-51.328469"
     inkscape:cy="110.20788"
     inkscape:window-x="-8"
     inkscape:window-y="-8"
     inkscape:window-maximized="1"
     inkscape:current-layer="g4125" /><g
     id="g4123"
     inkscape:groupmode="layer"
     inkscape:label="yt_logo_cmyk_mono_light"
     transform="matrix(1.3333333,0,0,-1.3333333,0,100.00001)"><g
       id="g4125"
       transform="translate(55.707727,44.326576)"><a
         id="a4187"
         transform="matrix(0.54383443,0,0,0.54383443,-122.27177,-5.3322743)"><g
           clip-path="url(#clipPath4131)"
           id="g4127"><g
             transform="translate(133.1438,109.3407)"
             id="g4133" /><g
             transform="translate(274.3513,101.0555)"
             id="g4137" /><g
             transform="translate(446.926,136.2005)"
             id="g4141" /><g
             transform="translate(231.6912,114.7836)"
             id="g4145" /><g
             transform="translate(326.136,144.4071)"
             id="g4149" /><g
             transform="translate(387.6321,144.4071)"
             id="g4153" /><g
             transform="translate(358.7141,154.3978)"
             id="g4157" /><g
             transform="translate(416.3206,114.1713)"
             id="g4161" /><g
             transform="translate(133.1438,109.3368)"
             id="g4165" /></g></a><g
         transform="matrix(2.7661613,0,0,-2.0468976,-54.763147,563.29155)"
         id="layer1"
         inkscape:label="Layer 1"><g
           transform="matrix(0.79532434,0,0,-0.79532434,13.117637,271.48652)"
           id="g3733" /></g><g
         id="Square_Grey"
         data-name="Square Grey"
         transform="matrix(0.75000002,0,0,-0.75000002,-568.99469,586.01169)"><g
           id="WhatsApp-3"
           data-name="WhatsApp"><g
             id="whatsApp-4"
             data-name="whatsApp" /></g><g
           id="TikTok-2"
           data-name="TikTok" /><g
           id="YouTube-3"
           data-name="YouTube"><path
             style="fill:#ffffff"
             inkscape:connector-curvature="0"
             id="youtube-4"
             data-name="youtube"
             class="cls-2"
             d="m 1116.3,577 a 6.82,6.82 0 0 1 -6.8,6.8 h -34 a 6.82,6.82 0 0 1 -6.8,-6.8 v -19 a 6.82,6.82 0 0 1 6.8,-6.8 h 34 a 6.82,6.82 0 0 1 6.8,6.8 z m -28.72,-3.68 12.87,-6.66 -12.87,-6.66 z" /></g><g
           id="Yelp-3"
           data-name="Yelp"><g
             id="yelp-4"
             data-name="yelp"><path
               style="fill:#ffffff"
               inkscape:connector-curvature="0"
               class="cls-2"
               d="m 970.29,566.62 c -0.78,1.23 -1.1,5.13 -0.83,7.73 a 6.17,6.17 0 0 0 0.47,2 1.67,1.67 0 0 0 1.42,1 c 0.38,0 0.62,0 7.76,-2.34 l 3.19,-1 a 1.93,1.93 0 0 0 1.38,-1.86 2,2 0 0 0 -1.25,-2.1 l -2.25,-0.92 c -7.68,-3.16 -8,-3.29 -8.41,-3.29 a 1.63,1.63 0 0 0 -1.48,0.78 z"
               id="path4353" /><path
               style="fill:#ffffff"
               inkscape:connector-curvature="0"
               class="cls-2"
               d="m 995.91,569.88 c 8.12,-2 8.43,-2.07 8.75,-2.28 a 1.68,1.68 0 0 0 0.7,-1.56 V 566 c -0.21,-2 -3.71,-7.18 -5.43,-8 a 1.68,1.68 0 0 0 -1.72,0.07 c -0.32,0.2 -0.54,0.51 -4.89,6.45 0,0 -2,2.68 -2,2.71 a 1.93,1.93 0 0 0 0,2.3 2.07,2.07 0 0 0 2.23,1 v 0.06 c 0.34,-0.23 1.06,-0.4 2.36,-0.71 z"
               id="path4359" /><path
               style="fill:#ffffff"
               inkscape:connector-curvature="0"
               class="cls-2"
               d="m 987.76,563.18 v 0 c -0.14,-3.22 -1.1,-17.54 -1.22,-18.2 a 1.7,1.7 0 0 0 -1.31,-1.2 c -2.07,-0.52 -10,1.7 -11.45,3.21 a 1.74,1.74 0 0 0 -0.51,1.64 c 0.23,0.47 10,15.91 10,15.91 1.45,2.35 2.64,2 3,1.86 0.36,-0.14 1.62,-0.48 1.49,-3.22 z"
               id="path4361" /></g></g><g
           id="Twitter-3"
           data-name="Twitter" /><g
           id="Tumblr-3"
           data-name="Tumblr"><g
             id="Tumblr-4"
             data-name="Tumblr" /></g><g
           id="Stumbleupon-3"
           data-name="Stumbleupon" /><g
           id="Snapchat-3"
           data-name="Snapchat"><g
             id="Snapchat-4"
             data-name="Snapchat" /></g><g
           id="Reddit-3"
           data-name="Reddit"><g
             id="reddit-4"
             data-name="reddit"><path
               style="fill:#ffffff"
               inkscape:connector-curvature="0"
               class="cls-2"
               d="m 984,453.54 a 3,3 0 1 0 -3,3 3,3 0 0 0 3,-3 z"
               id="path4382" /><path
               style="fill:#ffffff"
               inkscape:connector-curvature="0"
               class="cls-2"
               d="m 994,450.58 a 3,3 0 1 0 3,3 3,3 0 0 0 -3,-3 z"
               id="path4384" /><path
               style="fill:#ffffff"
               inkscape:connector-curvature="0"
               class="cls-2"
               d="m 993.25,460.8 c -1.12,1.12 -3,1.67 -5.75,1.67 -2.75,0 -4.63,-0.55 -5.75,-1.67 a 0.82378699,0.82378699 0 0 0 -1.16,1.17 c 1.44,1.44 3.72,2.14 6.91,2.14 3.19,0 5.47,-0.7 6.91,-2.14 a 0.82,0.82 0 0 0 0,-1.17 0.83,0.83 0 0 0 -1.16,0 z"
               id="path4386" /></g></g><g
           id="Pinterest-3"
           data-name="Pinterest" /><g
           id="Linkedin-3"
           data-name="Linkedin"><g
             id="Linkedin-4"
             data-name="Linkedin" /></g><g
           id="Instagram-2"
           data-name="Instagram"><circle
             style="fill:#ffffff"
             class="cls-2"
             cx="685.20001"
             cy="449.79999"
             r="2.8599999"
             id="circle4407" /></g><g
           id="Google_3"
           data-name="Google+"><g
             id="Google_4"
             data-name="Google+"><path
               style="fill:#ffffff"
               inkscape:connector-curvature="0"
               class="cls-2"
               d="m 1173.71,357.52 c -0.3,-7.8 6.53,-15 14.34,-15.1 a 15.12,15.12 0 0 1 10.86,3.73 c -1.24,1.35 -2.49,2.7 -3.83,4 -2.66,-1.61 -5.85,-2.83 -8.94,-1.74 a 9.5569987,9.5569987 0 1 0 6.43,18 8.36,8.36 0 0 0 4.91,-5.73 c -2.89,-0.05 -5.78,0 -8.67,-0.1 0,-1.72 0,-3.43 0,-5.15 4.81,0 9.64,0 14.46,0 0.29,4.2 -0.33,8.71 -3.06,12.09 -3.75,4.82 -10.67,6.24 -16.31,4.35 a 15.12,15.12 0 0 1 -10.19,-14.3"
               id="path4411" /><path
               style="fill:#ffffff"
               inkscape:connector-curvature="0"
               class="cls-2"
               d="m 1212.66,351 h 4.34 v 4.32 h 4.32 v 4.3 H 1217 v 4.33 h -4.3 c 0,-1.45 0,-2.88 0,-4.32 h -4.32 v -4.3 h 4.32 c 0,-1.44 0,-2.88 0,-4.32"
               id="path4413" /></g></g><g
           id="Github-3"
           data-name="Github"><g
             id="Github-4"
             data-name="Github"><path
               style="fill:#ffffff"
               inkscape:connector-curvature="0"
               class="cls-2"
               d="m 1077.71,368.46 c 0,0.12 -0.23,0.15 -0.4,0.07 -0.17,-0.08 -0.27,-0.24 -0.22,-0.36 0.05,-0.12 0.24,-0.15 0.41,-0.07 0.17,0.08 0.27,0.24 0.21,0.36 z m -0.29,-0.22"
               id="path4420" /><path
               style="fill:#ffffff"
               inkscape:connector-curvature="0"
               class="cls-2"
               d="m 1078.68,369.53 c -0.11,0.11 -0.34,0.06 -0.49,-0.11 a 0.37,0.37 0 0 1 -0.07,-0.49 c 0.12,-0.11 0.33,-0.06 0.49,0.11 0.16,0.17 0.19,0.39 0.07,0.49 z m -0.23,-0.24"
               id="path4422" /><path
               style="fill:#ffffff"
               inkscape:connector-curvature="0"
               class="cls-2"
               d="m 1079.62,370.91 c -0.15,0.1 -0.39,0 -0.53,-0.21 -0.14,-0.21 -0.15,-0.47 0,-0.57 0.15,-0.1 0.38,0 0.53,0.2 0.15,0.2 0.15,0.47 0,0.58 z m 0,0"
               id="path4424" /><path
               style="fill:#ffffff"
               inkscape:connector-curvature="0"
               class="cls-2"
               d="m 1080.9,372.23 c -0.13,0.14 -0.41,0.1 -0.61,-0.09 -0.2,-0.19 -0.27,-0.47 -0.13,-0.61 0.14,-0.14 0.41,-0.1 0.61,0.09 0.2,0.19 0.27,0.47 0.13,0.61 z m 0,0"
               id="path4426" /><path
               style="fill:#ffffff"
               inkscape:connector-curvature="0"
               class="cls-2"
               d="m 1082.68,373 c -0.06,0.18 -0.33,0.27 -0.6,0.19 -0.27,-0.08 -0.44,-0.3 -0.39,-0.49 0.05,-0.19 0.33,-0.27 0.6,-0.19 0.27,0.08 0.44,0.3 0.39,0.49 z m 0,0"
               id="path4428" /><path
               style="fill:#ffffff"
               inkscape:connector-curvature="0"
               class="cls-2"
               d="m 1084.62,373.14 c 0,0.2 -0.22,0.36 -0.5,0.36 -0.28,0 -0.52,-0.15 -0.52,-0.34 0,-0.19 0.22,-0.36 0.51,-0.37 0.29,-0.01 0.51,0.16 0.51,0.35 z m 0,0"
               id="path4430" /><path
               style="fill:#ffffff"
               inkscape:connector-curvature="0"
               class="cls-2"
               d="m 1086.44,372.83 c 0,0.19 -0.17,0.39 -0.45,0.44 -0.28,0.05 -0.53,-0.06 -0.56,-0.25 -0.03,-0.19 0.16,-0.4 0.44,-0.45 0.28,-0.05 0.53,0.07 0.57,0.26 z m 0,0"
               id="path4432" /></g></g><g
           id="Facebook-3"
           data-name="Facebook" /><g
           id="Dribbble-2"
           data-name="Dribbble" /><g
           id="Deviantart-3"
           data-name="Deviantart" /><g
           id="Behance-3"
           data-name="Behance" /></g><g
         id="Square_Color"
         data-name="Square Color"
         transform="matrix(0.75000002,0,0,-0.75000002,-568.99469,586.01169)"><g
           id="WhatsApp-5"
           data-name="WhatsApp"><g
             id="whatsApp-6"
             data-name="whatsApp" /></g><g
           id="TikTok-3"
           data-name="TikTok"><path
             style="fill:#69c9d0"
             inkscape:connector-curvature="0"
             class="cls-7"
             d="m 650,266.28 0.16,0.46 c -0.02,-0.05 -0.08,-0.21 -0.16,-0.46 z"
             id="path4461" /></g><g
           id="YouTube-5"
           data-name="YouTube" /><g
           id="Yelp-5"
           data-name="Yelp"><g
             id="yelp-6"
             data-name="yelp"><path
               style="fill:#ffffff"
               inkscape:connector-curvature="0"
               class="cls-2"
               d="m 970.29,251.62 c -0.78,1.23 -1.1,5.13 -0.83,7.73 a 6.17,6.17 0 0 0 0.47,2 1.67,1.67 0 0 0 1.42,1 c 0.38,0 0.62,-0.05 7.76,-2.34 l 3.19,-1 a 1.93,1.93 0 0 0 1.38,-1.86 2,2 0 0 0 -1.25,-2.1 l -2.25,-0.92 c -7.68,-3.16 -8,-3.29 -8.41,-3.29 a 1.63,1.63 0 0 0 -1.48,0.78 z"
               id="path4472" /><path
               style="fill:#ffffff"
               inkscape:connector-curvature="0"
               class="cls-2"
               d="m 995.91,254.88 c 8.12,-2 8.43,-2.07 8.75,-2.28 a 1.68,1.68 0 0 0 0.7,-1.56 V 251 c -0.21,-2 -3.71,-7.18 -5.43,-8 a 1.68,1.68 0 0 0 -1.72,0.07 c -0.32,0.2 -0.54,0.51 -4.89,6.45 0,0 -2,2.68 -2,2.71 a 1.93,1.93 0 0 0 0,2.3 2.07,2.07 0 0 0 2.23,1 v 0.06 c 0.34,-0.23 1.06,-0.4 2.36,-0.71 z"
               id="path4478" /><path
               style="fill:#ffffff"
               inkscape:connector-curvature="0"
               class="cls-2"
               d="m 987.76,248.18 v 0 c -0.14,-3.22 -1.1,-17.54 -1.22,-18.2 a 1.7,1.7 0 0 0 -1.31,-1.2 c -2.07,-0.52 -10,1.7 -11.45,3.21 a 1.74,1.74 0 0 0 -0.51,1.64 c 0.23,0.47 10,15.91 10,15.91 1.45,2.35 2.64,2 3,1.86 0.36,-0.14 1.62,-0.48 1.49,-3.22 z"
               id="path4480" /></g></g><g
           id="Twitter-5"
           data-name="Twitter" /><g
           id="Tumblr-5"
           data-name="Tumblr"><g
             id="Tumblr-6"
             data-name="Tumblr" /></g><g
           id="Stumbleupon-5"
           data-name="Stumbleupon" /><g
           id="Snapchat-5"
           data-name="Snapchat"><g
             id="Snapchat-6"
             data-name="Snapchat" /></g><g
           id="Reddit-5"
           data-name="Reddit"><g
             id="reddit-6"
             data-name="reddit"><path
               style="fill:#ffffff"
               inkscape:connector-curvature="0"
               class="cls-2"
               d="m 984,138.54 a 3,3 0 1 0 -3,3 3,3 0 0 0 3,-3 z"
               id="path4502" /><path
               style="fill:#ffffff"
               inkscape:connector-curvature="0"
               class="cls-2"
               d="m 994,135.58 a 3,3 0 1 0 3,3 3,3 0 0 0 -3,-3 z"
               id="path4504" /><path
               style="fill:#ffffff"
               inkscape:connector-curvature="0"
               class="cls-2"
               d="m 993.25,145.8 c -1.12,1.12 -3,1.67 -5.75,1.67 -2.75,0 -4.63,-0.55 -5.75,-1.67 a 0.82378699,0.82378699 0 0 0 -1.16,1.17 c 1.44,1.44 3.72,2.14 6.91,2.14 3.19,0 5.47,-0.7 6.91,-2.14 a 0.82,0.82 0 0 0 0,-1.17 0.83,0.83 0 0 0 -1.16,0 z"
               id="path4506" /></g></g><g
           id="Pinterest-5"
           data-name="Pinterest" /><g
           id="Linkedin-5"
           data-name="Linkedin"><g
             id="Linkedin-6"
             data-name="Linkedin" /></g><g
           id="Instagram-3"
           data-name="Instagram"><circle
             style="fill:#ffffff"
             class="cls-2"
             cx="685.20001"
             cy="134.8"
             r="2.8599999"
             id="circle4527" /></g><g
           id="Google_5"
           data-name="Google+"><g
             id="Google_6"
             data-name="Google+" /></g><g
           id="Github-5"
           data-name="Github"><g
             id="Github-6"
             data-name="Github"><path
               style="fill:#ffffff"
               inkscape:connector-curvature="0"
               class="cls-2"
               d="m 1077.71,53.46 c 0,0.12 -0.23,0.15 -0.4,0.07 -0.17,-0.08 -0.27,-0.24 -0.22,-0.36 0.05,-0.12 0.24,-0.15 0.41,-0.07 0.17,0.08 0.27,0.24 0.21,0.36 z m -0.29,-0.22"
               id="path4540" /><path
               style="fill:#ffffff"
               inkscape:connector-curvature="0"
               class="cls-2"
               d="m 1078.68,54.53 c -0.11,0.11 -0.34,0.06 -0.49,-0.11 a 0.37,0.37 0 0 1 -0.07,-0.49 c 0.12,-0.11 0.33,-0.06 0.49,0.11 0.16,0.17 0.19,0.39 0.07,0.49 z m -0.23,-0.24"
               id="path4542" /><path
               style="fill:#ffffff"
               inkscape:connector-curvature="0"
               class="cls-2"
               d="m 1080.9,57.23 c -0.13,0.14 -0.41,0.1 -0.61,-0.09 -0.2,-0.19 -0.27,-0.47 -0.13,-0.61 0.14,-0.14 0.41,-0.1 0.61,0.09 0.2,0.19 0.27,0.47 0.13,0.61 z m 0,0"
               id="path4546" /><path
               style="fill:#ffffff"
               inkscape:connector-curvature="0"
               class="cls-2"
               d="m 1082.68,58 c -0.06,0.18 -0.33,0.27 -0.6,0.19 -0.27,-0.08 -0.44,-0.3 -0.39,-0.49 0.05,-0.19 0.33,-0.27 0.6,-0.19 0.27,0.08 0.44,0.3 0.39,0.49 z m 0,0"
               id="path4548" /><path
               style="fill:#ffffff"
               inkscape:connector-curvature="0"
               class="cls-2"
               d="m 1084.62,58.14 c 0,0.2 -0.22,0.36 -0.5,0.36 -0.28,0 -0.52,-0.15 -0.52,-0.34 0,-0.19 0.22,-0.36 0.51,-0.37 0.29,-0.01 0.51,0.16 0.51,0.35 z m 0,0"
               id="path4550" /><path
               style="fill:#ffffff"
               inkscape:connector-curvature="0"
               class="cls-2"
               d="m 1086.44,57.83 c 0,0.19 -0.17,0.39 -0.45,0.44 -0.28,0.05 -0.53,-0.06 -0.56,-0.25 -0.03,-0.19 0.16,-0.4 0.44,-0.45 0.28,-0.05 0.53,0.07 0.57,0.26 z m 0,0"
               id="path4552" /></g></g><g
           id="Facebook-5"
           data-name="Facebook"><path
             style="fill:#ffffff"
             inkscape:connector-curvature="0"
             id="Facebook-6"
             data-name="Facebook"
             class="cls-2"
             d="m 1008.67,18.7 h -42.34 a 2.63,2.63 0 0 0 -2.63,2.63 v 42.34 a 2.63,2.63 0 0 0 2.63,2.63 h 22.79 V 47.87 h -6.2 v -7.19 h 6.2 v -5.29 c 0,-6.15 3.76,-9.5 9.24,-9.5 a 53.46,53.46 0 0 1 5.55,0.28 v 6.43 h -3.81 c -3,0 -3.56,1.42 -3.56,3.5 v 4.58 h 7.12 l -0.93,7.19 h -6.19 V 66.3 h 12.13 a 2.63,2.63 0 0 0 2.63,-2.63 V 21.33 a 2.63,2.63 0 0 0 -2.63,-2.63 z" /></g><g
           id="Dribbble-3"
           data-name="Dribbble"><path
             style="fill:#ffffff"
             inkscape:connector-curvature="0"
             id="dribble-3"
             data-name="dribble"
             class="cls-2"
             d="M 893.73,58.9 A 72.39,72.39 0 0 0 890,45.36 a 39.58,39.58 0 0 1 12.12,0.51 20,20 0 0 1 -8.39,13.03 z m -23.29,-0.61 c 3.35,-5.06 8,-10.06 15.63,-12.16 a 67.83,67.83 0 0 1 4,14.76 20.11,20.11 0 0 1 -7.58,1.48 19.81,19.81 0 0 1 -12.05,-4.08 z M 862.63,42.5 v -0.64 h 0.12 c 7.08,0 14.12,-0.47 20.42,-2.32 0.46,1 0.94,1.93 1.37,2.94 -8.29,2.44 -13.46,7.89 -17,13.09 A 19.67,19.67 0 0 1 862.63,42.5 Z M 874,24.55 A 98.58,98.58 0 0 1 881.31,36 70.63,70.63 0 0 1 863.16,38 20,20 0 0 1 874,24.55 Z m 21.42,2.82 a 24.85,24.85 0 0 1 -10.29,7.34 102.83,102.83 0 0 0 -7.26,-11.53 20.11,20.11 0 0 1 4.68,-0.55 19.73,19.73 0 0 1 12.82,4.74 z m 2.74,2.85 a 19.81,19.81 0 0 1 4.26,11.72 42.1,42.1 0 0 0 -13.92,-0.33 c -0.51,-1.15 -1,-2.29 -1.57,-3.38 a 28.41,28.41 0 0 0 11.18,-8.01 z M 882.5,18.7 a 23.8,23.8 0 1 0 23.8,23.8 23.79,23.79 0 0 0 -23.8,-23.8 z" /></g><g
           id="Deviantart-5"
           data-name="Deviantart"><polygon
             style="fill:#ffffff"
             id="Deviantart-6"
             data-name="Deviantart"
             class="cls-2"
             points="762.77,40.11 770.78,40.11 771.5,40.97 762.77,57.65 762.77,66.3 762.77,66.3 771.42,66.3 772.29,65.43 776.37,57.65 777.65,56.78 792.23,56.78 792.23,44.89 784.22,44.89 783.5,44.02 792.23,27.36 792.23,18.7 783.58,18.7 782.71,19.57 778.63,27.35 777.34,28.22 762.77,28.22 " /></g><g
           id="Behance-5"
           data-name="Behance" /></g><g
         id="Circle_Black"
         data-name="Circle Black"
         transform="matrix(0.86587898,0,0,-0.86587898,-418.28995,757.63535)"><g
           id="WhatsApp-7"
           data-name="WhatsApp"><g
             id="whatsApp-8"
             data-name="whatsApp" /></g><g
           id="YouTube-7"
           data-name="YouTube"><circle
             style="fill:#262626"
             id="back-55"
             data-name="back"
             class="cls-1"
             cx="462.5"
             cy="882.5"
             r="42.5" /><path
             style="fill:#ffffff"
             inkscape:connector-curvature="0"
             id="youtube-8"
             data-name="youtube"
             class="cls-2"
             d="m 486.3,892 a 6.82,6.82 0 0 1 -6.8,6.8 h -34 a 6.82,6.82 0 0 1 -6.8,-6.8 v -19 a 6.82,6.82 0 0 1 6.8,-6.8 h 34 a 6.82,6.82 0 0 1 6.8,6.8 z m -28.72,-3.68 12.87,-6.66 -12.87,-6.66 z" /></g><g
           id="Yelp-7"
           data-name="Yelp"><g
             id="yelp-8"
             data-name="yelp"><path
               style="fill:#ffffff"
               inkscape:connector-curvature="0"
               class="cls-2"
               d="m 357.46,905.21 c 0.13,-0.36 0.14,-0.6 0.16,-8.11 0,0 0,-3.32 0,-3.35 a 2,2 0 0 0 -1.34,-1.89 2.07,2.07 0 0 0 -2.38,0.54 c 0,0 -1.56,1.86 -1.57,1.86 -5.38,6.32 -5.6,6.61 -5.73,7 a 1.38,1.38 0 0 0 -0.09,0.69 1.82,1.82 0 0 0 0.43,1 c 1.25,1.48 7.23,3.68 9.14,3.36 a 1.68,1.68 0 0 0 1.38,-1.1 z"
               id="path4582" /><path
               style="fill:#ffffff"
               inkscape:connector-curvature="0"
               class="cls-2"
               d="m 357.76,878.18 v 0 c -0.14,-3.22 -1.1,-17.54 -1.22,-18.2 a 1.7,1.7 0 0 0 -1.31,-1.2 c -2.07,-0.52 -10,1.7 -11.45,3.21 a 1.74,1.74 0 0 0 -0.51,1.64 c 0.23,0.47 10,15.91 10,15.91 1.45,2.35 2.64,2 3,1.86 0.36,-0.14 1.62,-0.48 1.49,-3.22 z"
               id="path4588" /></g></g><g
           id="Twitter-7"
           data-name="Twitter" /><g
           id="Tumblr-7"
           data-name="Tumblr"><g
             id="Tumblr-8"
             data-name="Tumblr" /></g><g
           id="TikTok-4"
           data-name="TikTok" /><g
           id="Stumbleupon-7"
           data-name="Stumbleupon" /><g
           id="Snapchat-7"
           data-name="Snapchat"><g
             id="Snapchat-8"
             data-name="Snapchat" /></g><g
           id="Reddit-7"
           data-name="Reddit"><g
             id="reddit-8"
             data-name="reddit"><path
               style="fill:#ffffff"
               inkscape:connector-curvature="0"
               class="cls-2"
               d="m 354,768.54 a 3,3 0 1 0 -3,3 3,3 0 0 0 3,-3 z"
               id="path4613" /><path
               style="fill:#ffffff"
               inkscape:connector-curvature="0"
               class="cls-2"
               d="m 364,765.58 a 3,3 0 1 0 3,3 3,3 0 0 0 -3,-3 z"
               id="path4615" /><path
               style="fill:#ffffff"
               inkscape:connector-curvature="0"
               class="cls-2"
               d="m 363.25,775.8 c -1.12,1.12 -3,1.67 -5.75,1.67 -2.75,0 -4.63,-0.55 -5.75,-1.67 a 0.82378699,0.82378699 0 1 0 -1.16,1.17 c 1.44,1.44 3.72,2.14 6.91,2.14 3.19,0 5.47,-0.7 6.91,-2.14 a 0.82,0.82 0 0 0 0,-1.17 0.83,0.83 0 0 0 -1.16,0 z"
               id="path4617" /></g></g><g
           id="Pinterest-7"
           data-name="Pinterest" /><g
           id="Linkedin-7"
           data-name="Linkedin"><g
             id="Linkedin-8"
             data-name="Linkedin" /></g><g
           id="Instagram-4"
           data-name="Instagram"><circle
             style="fill:#ffffff"
             class="cls-2"
             cx="55.200001"
             cy="764.79999"
             r="2.8599999"
             id="circle4638" /></g><g
           id="Google_7"
           data-name="Google+"><g
             id="Google_8"
             data-name="Google+"><path
               style="fill:#ffffff"
               inkscape:connector-curvature="0"
               class="cls-2"
               d="m 543.71,672.52 c -0.3,-7.8 6.53,-15 14.34,-15.1 a 15.12,15.12 0 0 1 10.86,3.73 c -1.23,1.35 -2.49,2.7 -3.83,4 -2.66,-1.61 -5.85,-2.83 -8.94,-1.74 a 9.5569987,9.5569987 0 1 0 6.43,18 8.36,8.36 0 0 0 4.91,-5.73 c -2.89,-0.05 -5.78,0 -8.67,-0.1 0,-1.72 0,-3.43 0,-5.15 4.81,0 9.64,0 14.46,0 0.29,4.2 -0.33,8.71 -3.06,12.09 -3.75,4.82 -10.67,6.24 -16.31,4.35 a 15.12,15.12 0 0 1 -10.19,-14.3"
               id="path4642" /><path
               style="fill:#ffffff"
               inkscape:connector-curvature="0"
               class="cls-2"
               d="M 582.66,666 H 587 v 4.32 h 4.32 v 4.3 H 587 v 4.33 h -4.3 c 0,-1.45 0,-2.88 0,-4.32 h -4.32 v -4.3 h 4.32 c 0,-1.44 0,-2.88 0,-4.32"
               id="path4644" /></g></g><g
           id="Github-7"
           data-name="Github"><g
             id="Github-8"
             data-name="Github"><path
               style="fill:#ffffff;fill-rule:evenodd"
               inkscape:connector-curvature="0"
               class="cls-3"
               d="m 462.5,649.29 a 23.8,23.8 0 0 0 -7.5,46.38 c 1.19,0.22 1.62,-0.52 1.62,-1.14 0,-0.62 0,-2.45 0,-4.43 -6.62,1.43 -8,-2.81 -8,-2.81 -1.08,-2.75 -2.64,-3.49 -2.64,-3.49 -2.16,-1.47 0.16,-1.44 0.16,-1.44 a 5,5 0 0 1 3.65,2.45 c 2.12,3.64 5.57,2.59 6.93,2 a 5,5 0 0 1 1.51,-3.18 c -5.29,-0.6 -10.85,-2.65 -10.85,-11.77 a 9.17,9.17 0 0 1 2.46,-6.38 8.5,8.5 0 0 1 0.23,-6.3 c 0,0 2,-0.64 6.54,2.44 a 22.6,22.6 0 0 1 11.92,0 c 4.55,-3.08 6.54,-2.44 6.54,-2.44 a 8.5,8.5 0 0 1 0.23,6.3 9.16,9.16 0 0 1 2.45,6.38 c 0,9.15 -5.56,11.16 -10.86,11.75 a 5.7,5.7 0 0 1 1.61,4.41 c 0,3.18 0,5.74 0,6.53 0,0.63 0.43,1.37 1.64,1.14 a 23.8,23.8 0 0 0 -7.54,-46.38 z"
               id="path4649" /><path
               style="fill:#ffffff"
               inkscape:connector-curvature="0"
               class="cls-2"
               d="m 447.71,683.46 c 0,0.12 -0.23,0.15 -0.4,0.07 -0.17,-0.08 -0.27,-0.24 -0.22,-0.36 0.05,-0.12 0.24,-0.15 0.41,-0.07 0.17,0.08 0.27,0.24 0.21,0.36 z m -0.29,-0.22"
               id="path4651" /><path
               style="fill:#ffffff"
               inkscape:connector-curvature="0"
               class="cls-2"
               d="m 448.68,684.53 c -0.11,0.11 -0.34,0.06 -0.49,-0.11 a 0.37,0.37 0 0 1 -0.07,-0.49 c 0.12,-0.11 0.33,-0.06 0.49,0.11 0.16,0.17 0.19,0.39 0.07,0.49 z m -0.23,-0.24"
               id="path4653" /><path
               style="fill:#ffffff"
               inkscape:connector-curvature="0"
               class="cls-2"
               d="m 449.62,685.91 c -0.15,0.1 -0.39,0 -0.53,-0.21 -0.14,-0.21 -0.15,-0.47 0,-0.57 0.15,-0.1 0.38,0 0.53,0.2 0.15,0.2 0.15,0.47 0,0.58 z m 0,0"
               id="path4655" /><path
               style="fill:#ffffff"
               inkscape:connector-curvature="0"
               class="cls-2"
               d="m 450.9,687.23 c -0.13,0.14 -0.41,0.1 -0.61,-0.09 -0.2,-0.19 -0.27,-0.47 -0.13,-0.61 0.14,-0.14 0.41,-0.1 0.61,0.09 0.2,0.19 0.27,0.47 0.13,0.61 z m 0,0"
               id="path4657" /><path
               style="fill:#ffffff"
               inkscape:connector-curvature="0"
               class="cls-2"
               d="m 452.68,688 c -0.06,0.18 -0.33,0.27 -0.6,0.19 -0.27,-0.08 -0.44,-0.3 -0.39,-0.49 0.05,-0.19 0.33,-0.27 0.6,-0.19 0.27,0.08 0.44,0.3 0.39,0.49 z m 0,0"
               id="path4659" /><path
               style="fill:#ffffff"
               inkscape:connector-curvature="0"
               class="cls-2"
               d="m 454.62,688.14 c 0,0.2 -0.22,0.36 -0.5,0.36 -0.28,0 -0.52,-0.15 -0.52,-0.34 0,-0.19 0.22,-0.36 0.51,-0.37 0.29,-0.01 0.51,0.16 0.51,0.35 z m 0,0"
               id="path4661" /><path
               style="fill:#ffffff"
               inkscape:connector-curvature="0"
               class="cls-2"
               d="m 456.44,687.83 c 0,0.19 -0.17,0.39 -0.45,0.44 -0.28,0.05 -0.53,-0.06 -0.56,-0.25 -0.03,-0.19 0.16,-0.4 0.44,-0.45 0.28,-0.05 0.53,0.07 0.57,0.26 z m 0,0"
               id="path4663" /></g></g><g
           id="Facebook-7"
           data-name="Facebook"><path
             style="fill:#ffffff"
             inkscape:connector-curvature="0"
             id="Facebook-8"
             data-name="Facebook"
             class="cls-2"
             d="m 378.18,649.26 h -41.36 a 2.56,2.56 0 0 0 -2.56,2.56 v 41.36 a 2.56,2.56 0 0 0 2.56,2.56 h 22.27 v -18 H 353 v -7 h 6.06 v -5.18 c 0,-6 3.66,-9.27 9,-9.27 a 48.14,48.14 0 0 1 5.41,0.28 v 6.27 h -3.71 c -2.92,0 -3.48,1.39 -3.48,3.42 v 4.48 h 6.95 l -0.91,7 h -6 v 18 h 11.85 a 2.56,2.56 0 0 0 2.56,-2.56 v -41.36 a 2.56,2.56 0 0 0 -2.55,-2.56 z" /></g><g
           id="Dribbble-4"
           data-name="Dribbble" /><g
           id="Deviantart-7"
           data-name="Deviantart" /><g
           id="Behance-7"
           data-name="Behance" /></g><g
         id="Circle_Grey"
         data-name="Circle Grey"
         transform="matrix(0.75000002,0,0,-0.75000002,-568.99469,586.01169)"><g
           id="WhatsApp-9"
           data-name="WhatsApp"><g
             id="whatsApp-10"
             data-name="whatsApp" /></g><g
           id="YouTube-9"
           data-name="YouTube" /><g
           id="Yelp-9"
           data-name="Yelp"><g
             id="yelp-10"
             data-name="yelp"><path
               style="fill:#ffffff"
               inkscape:connector-curvature="0"
               class="cls-2"
               d="m 357.46,590.21 c 0.13,-0.36 0.14,-0.6 0.16,-8.11 0,0 0,-3.32 0,-3.35 a 2,2 0 0 0 -1.34,-1.89 2.07,2.07 0 0 0 -2.38,0.54 c 0,0 -1.56,1.86 -1.57,1.86 -5.38,6.32 -5.6,6.61 -5.73,7 a 1.38,1.38 0 0 0 -0.09,0.69 1.82,1.82 0 0 0 0.43,1 c 1.25,1.48 7.23,3.68 9.14,3.36 a 1.68,1.68 0 0 0 1.38,-1.1 z"
               id="path4693" /><path
               style="fill:#ffffff"
               inkscape:connector-curvature="0"
               class="cls-2"
               d="m 369.6,587.6 c 1.8,-0.72 5.74,-5.72 6,-7.65 a 1.68,1.68 0 0 0 -0.57,-1.62 c -0.31,-0.22 -0.54,-0.31 -7.68,-2.65 l -3.17,-1.06 a 1.94,1.94 0 0 0 -2.2,0.7 2,2 0 0 0 -0.22,2.44 l 1.26,2 c 4.24,6.89 4.57,7.37 4.87,7.61 a 1.65,1.65 0 0 0 1.7,0.18 z"
               id="path4695" /><path
               style="fill:#ffffff"
               inkscape:connector-curvature="0"
               class="cls-2"
               d="m 365.91,569.88 c 8.12,-2 8.43,-2.07 8.75,-2.28 a 1.68,1.68 0 0 0 0.7,-1.56 V 566 c -0.21,-2 -3.71,-7.18 -5.43,-8 a 1.68,1.68 0 0 0 -1.72,0.07 c -0.32,0.2 -0.54,0.51 -4.89,6.45 0,0 -2,2.68 -2,2.71 a 1.93,1.93 0 0 0 0,2.3 2.07,2.07 0 0 0 2.23,1 l -0.05,0.06 c 0.39,-0.23 1.11,-0.4 2.41,-0.71 z"
               id="path4697" /><path
               style="fill:#ffffff"
               inkscape:connector-curvature="0"
               class="cls-2"
               d="m 357.76,563.18 v 0 c -0.14,-3.22 -1.1,-17.54 -1.22,-18.2 a 1.7,1.7 0 0 0 -1.31,-1.2 c -2.07,-0.52 -10,1.7 -11.45,3.21 a 1.74,1.74 0 0 0 -0.51,1.64 c 0.23,0.47 10,15.91 10,15.91 1.45,2.35 2.64,2 3,1.86 0.36,-0.14 1.62,-0.48 1.49,-3.22 z"
               id="path4699" /></g></g><g
           id="Twitter-9"
           data-name="Twitter" /><g
           id="Tumblr-9"
           data-name="Tumblr"><g
             id="Tumblr-10"
             data-name="Tumblr" /></g><g
           id="TikTok-5"
           data-name="TikTok" /><g
           id="Stumbleupon-9"
           data-name="Stumbleupon" /><g
           id="Snapchat-9"
           data-name="Snapchat"><g
             id="Snapchat-10"
             data-name="Snapchat" /></g><g
           id="Reddit-9"
           data-name="Reddit"><g
             id="reddit-10"
             data-name="reddit"><path
               style="fill:#ffffff"
               inkscape:connector-curvature="0"
               class="cls-2"
               d="m 354,453.54 a 3,3 0 1 0 -3,3 3,3 0 0 0 3,-3 z"
               id="path4724" /><path
               style="fill:#ffffff"
               inkscape:connector-curvature="0"
               class="cls-2"
               d="m 364,450.58 a 3,3 0 1 0 3,3 3,3 0 0 0 -3,-3 z"
               id="path4726" /><path
               style="fill:#ffffff"
               inkscape:connector-curvature="0"
               class="cls-2"
               d="m 363.25,460.8 c -1.12,1.12 -3,1.67 -5.75,1.67 -2.75,0 -4.63,-0.55 -5.75,-1.67 a 0.82378699,0.82378699 0 1 0 -1.16,1.17 c 1.44,1.44 3.72,2.14 6.91,2.14 3.19,0 5.47,-0.7 6.91,-2.14 a 0.82,0.82 0 0 0 0,-1.17 0.83,0.83 0 0 0 -1.16,0 z"
               id="path4728" /></g></g><g
           id="Pinterest-9"
           data-name="Pinterest" /><g
           id="Linkedin-9"
           data-name="Linkedin"><g
             id="Linkedin-10"
             data-name="Linkedin" /></g><g
           id="Instagram-5"
           data-name="Instagram"><circle
             style="fill:#ffffff"
             class="cls-2"
             cx="55.200001"
             cy="449.79999"
             r="2.8599999"
             id="circle4749" /></g><g
           id="Google_9"
           data-name="Google+"><g
             id="Google_10"
             data-name="Google+"><path
               style="fill:#ffffff"
               inkscape:connector-curvature="0"
               class="cls-2"
               d="m 543.71,357.52 c -0.3,-7.8 6.53,-15 14.34,-15.1 a 15.12,15.12 0 0 1 10.86,3.73 c -1.23,1.35 -2.49,2.7 -3.83,4 -2.66,-1.61 -5.85,-2.83 -8.94,-1.74 a 9.5569987,9.5569987 0 1 0 6.43,18 8.36,8.36 0 0 0 4.91,-5.73 c -2.89,-0.05 -5.78,0 -8.67,-0.1 0,-1.72 0,-3.43 0,-5.15 4.81,0 9.64,0 14.46,0 0.29,4.2 -0.33,8.71 -3.06,12.09 -3.75,4.82 -10.67,6.24 -16.31,4.35 a 15.12,15.12 0 0 1 -10.19,-14.3"
               id="path4753" /><path
               style="fill:#ffffff"
               inkscape:connector-curvature="0"
               class="cls-2"
               d="M 582.66,351 H 587 v 4.32 h 4.32 v 4.3 H 587 v 4.33 h -4.3 c 0,-1.45 0,-2.88 0,-4.32 h -4.32 v -4.3 h 4.32 c 0,-1.44 0,-2.88 0,-4.32"
               id="path4755" /></g></g><g
           id="Github-9"
           data-name="Github"><g
             id="Github-10"
             data-name="Github"><path
               style="fill:#ffffff"
               inkscape:connector-curvature="0"
               class="cls-2"
               d="m 447.71,368.46 c 0,0.12 -0.23,0.15 -0.4,0.07 -0.17,-0.08 -0.27,-0.24 -0.22,-0.36 0.05,-0.12 0.24,-0.15 0.41,-0.07 0.17,0.08 0.27,0.24 0.21,0.36 z m -0.29,-0.22"
               id="path4762" /><path
               style="fill:#ffffff"
               inkscape:connector-curvature="0"
               class="cls-2"
               d="m 448.68,369.53 c -0.11,0.11 -0.34,0.06 -0.49,-0.11 a 0.37,0.37 0 0 1 -0.07,-0.49 c 0.12,-0.11 0.33,-0.06 0.49,0.11 0.16,0.17 0.19,0.39 0.07,0.49 z m -0.23,-0.24"
               id="path4764" /><path
               style="fill:#ffffff"
               inkscape:connector-curvature="0"
               class="cls-2"
               d="m 449.62,370.91 c -0.15,0.1 -0.39,0 -0.53,-0.21 -0.14,-0.21 -0.15,-0.47 0,-0.57 0.15,-0.1 0.38,0 0.53,0.2 0.15,0.2 0.15,0.47 0,0.58 z m 0,0"
               id="path4766" /><path
               style="fill:#ffffff"
               inkscape:connector-curvature="0"
               class="cls-2"
               d="m 450.9,372.23 c -0.13,0.14 -0.41,0.1 -0.61,-0.09 -0.2,-0.19 -0.27,-0.47 -0.13,-0.61 0.14,-0.14 0.41,-0.1 0.61,0.09 0.2,0.19 0.27,0.47 0.13,0.61 z m 0,0"
               id="path4768" /></g></g><g
           id="Facebook-9"
           data-name="Facebook" /><g
           id="Dribbble-5"
           data-name="Dribbble" /><g
           id="Deviantart-9"
           data-name="Deviantart" /><g
           id="Behance-9"
           data-name="Behance" /></g><g
         id="Circle_Color"
         data-name="Circle Color"
         transform="matrix(0.75000002,0,0,-0.75000002,-568.99469,586.01169)"><g
           id="WhatsApp-11"
           data-name="WhatsApp"><g
             id="whatsApp-12"
             data-name="whatsApp" /></g><g
           id="YouTube-11"
           data-name="YouTube" /><g
           id="Yelp-11"
           data-name="Yelp"><g
             id="yelp-12"
             data-name="yelp"><path
               style="fill:#ffffff"
               inkscape:connector-curvature="0"
               class="cls-2"
               d="m 340.29,251.62 c -0.78,1.23 -1.1,5.13 -0.83,7.73 a 6.17,6.17 0 0 0 0.47,2 1.67,1.67 0 0 0 1.42,1 c 0.38,0 0.62,-0.05 7.76,-2.34 l 3.19,-1 a 1.93,1.93 0 0 0 1.38,-1.86 2,2 0 0 0 -1.25,-2.1 l -2.25,-0.92 c -7.68,-3.16 -8,-3.29 -8.41,-3.29 a 1.63,1.63 0 0 0 -1.48,0.78 z"
               id="path4802" /><path
               style="fill:#ffffff"
               inkscape:connector-curvature="0"
               class="cls-2"
               d="m 357.46,275.21 c 0.13,-0.36 0.14,-0.6 0.16,-8.11 0,0 0,-3.32 0,-3.35 a 2,2 0 0 0 -1.34,-1.89 2.07,2.07 0 0 0 -2.38,0.54 c 0,0 -1.56,1.86 -1.57,1.86 -5.38,6.32 -5.6,6.61 -5.73,7 a 1.38,1.38 0 0 0 -0.09,0.69 1.82,1.82 0 0 0 0.43,1 c 1.25,1.48 7.23,3.68 9.14,3.36 a 1.68,1.68 0 0 0 1.38,-1.1 z"
               id="path4804" /><path
               style="fill:#ffffff"
               inkscape:connector-curvature="0"
               class="cls-2"
               d="m 369.6,272.6 c 1.8,-0.72 5.74,-5.72 6,-7.65 a 1.68,1.68 0 0 0 -0.57,-1.62 c -0.31,-0.22 -0.54,-0.31 -7.68,-2.65 l -3.17,-1.06 a 1.94,1.94 0 0 0 -2.2,0.7 2,2 0 0 0 -0.22,2.44 l 1.26,2.05 c 4.24,6.89 4.57,7.37 4.87,7.61 a 1.65,1.65 0 0 0 1.7,0.18 z"
               id="path4806" /><path
               style="fill:#ffffff"
               inkscape:connector-curvature="0"
               class="cls-2"
               d="m 365.91,254.88 c 8.12,-2 8.43,-2.07 8.75,-2.28 a 1.68,1.68 0 0 0 0.7,-1.56 V 251 c -0.21,-2 -3.71,-7.18 -5.43,-8 a 1.68,1.68 0 0 0 -1.72,0.07 c -0.32,0.2 -0.54,0.51 -4.89,6.45 0,0 -2,2.68 -2,2.71 a 1.93,1.93 0 0 0 0,2.3 2.07,2.07 0 0 0 2.23,1 l -0.05,0.06 c 0.39,-0.23 1.11,-0.4 2.41,-0.71 z"
               id="path4808" /></g></g><g
           id="Twitter-11"
           data-name="Twitter" /><g
           id="Tumblr-11"
           data-name="Tumblr"><g
             id="Tumblr-12"
             data-name="Tumblr" /></g><g
           id="TikTok-6"
           data-name="TikTok"><path
             style="fill:#69c9d0"
             inkscape:connector-curvature="0"
             class="cls-7"
             d="m 20,266.28 0.16,0.46 c -0.02,-0.05 -0.08,-0.21 -0.16,-0.46 z"
             id="path4827" /></g><g
           id="Stumbleupon-11"
           data-name="Stumbleupon" /><g
           id="Snapchat-11"
           data-name="Snapchat"><g
             id="Snapchat-12"
             data-name="Snapchat" /></g><g
           id="Reddit-11"
           data-name="Reddit"><g
             id="reddit-12"
             data-name="reddit"><path
               style="fill:#ffffff"
               inkscape:connector-curvature="0"
               class="cls-2"
               d="m 354,138.54 a 3,3 0 1 0 -3,3 3,3 0 0 0 3,-3 z"
               id="path4843" /><path
               style="fill:#ffffff"
               inkscape:connector-curvature="0"
               class="cls-2"
               d="m 364,135.58 a 3,3 0 1 0 3,3 3,3 0 0 0 -3,-3 z"
               id="path4845" /></g></g><g
           id="Pinterest-11"
           data-name="Pinterest" /><g
           id="Linkedin-11"
           data-name="Linkedin"><g
             id="Linkedin-12"
             data-name="Linkedin"><path
               style="fill:#ffffff"
               inkscape:connector-curvature="0"
               class="cls-2"
               d="m 124.31,139.36 h 9.87 v 31.74 h -9.87 z m 4.94,-15.77 a 5.72,5.72 0 1 1 -5.72,5.72 5.72,5.72 0 0 1 5.72,-5.72"
               id="path4857" /></g></g><g
           id="Instagram-6"
           data-name="Instagram"><circle
             style="fill:#ffffff"
             class="cls-2"
             cx="55.200001"
             cy="134.8"
             r="2.8599999"
             id="circle4868" /></g><g
           id="Google_11"
           data-name="Google+"><g
             id="Google_12"
             data-name="Google+"><path
               style="fill:#ffffff"
               inkscape:connector-curvature="0"
               class="cls-2"
               d="M 582.66,36 H 587 v 4.32 h 4.32 v 4.3 H 587 V 49 c -1.43,0 -2.87,0 -4.3,0 0,-1.45 0,-2.88 0,-4.32 h -4.32 v -4.3 h 4.32 c 0,-1.44 0,-2.88 0,-4.32"
               id="path4874" /></g></g><g
           id="Github-11"
           data-name="Github"><g
             id="Github-12"
             data-name="Github"><path
               style="fill:#ffffff"
               inkscape:connector-curvature="0"
               class="cls-2"
               d="m 447.71,53.46 c 0,0.12 -0.23,0.15 -0.4,0.07 -0.17,-0.08 -0.27,-0.24 -0.22,-0.36 0.05,-0.12 0.24,-0.15 0.41,-0.07 0.17,0.08 0.27,0.24 0.21,0.36 z m -0.29,-0.22"
               id="path4881" /><path
               style="fill:#ffffff"
               inkscape:connector-curvature="0"
               class="cls-2"
               d="m 448.68,54.53 c -0.11,0.11 -0.34,0.06 -0.49,-0.11 a 0.37,0.37 0 0 1 -0.07,-0.49 c 0.12,-0.11 0.33,-0.06 0.49,0.11 0.16,0.17 0.19,0.39 0.07,0.49 z m -0.23,-0.24"
               id="path4883" /><path
               style="fill:#ffffff"
               inkscape:connector-curvature="0"
               class="cls-2"
               d="m 449.62,55.91 c -0.15,0.1 -0.39,0 -0.53,-0.21 -0.14,-0.21 -0.15,-0.47 0,-0.57 0.15,-0.1 0.38,0 0.53,0.2 0.15,0.2 0.15,0.47 0,0.58 z m 0,0"
               id="path4885" /><path
               style="fill:#ffffff"
               inkscape:connector-curvature="0"
               class="cls-2"
               d="m 450.9,57.23 c -0.13,0.14 -0.41,0.1 -0.61,-0.09 -0.2,-0.19 -0.27,-0.47 -0.13,-0.61 0.14,-0.14 0.41,-0.1 0.61,0.09 0.2,0.19 0.27,0.47 0.13,0.61 z m 0,0"
               id="path4887" /><path
               style="fill:#ffffff"
               inkscape:connector-curvature="0"
               class="cls-2"
               d="m 452.68,58 c -0.06,0.18 -0.33,0.27 -0.6,0.19 -0.27,-0.08 -0.44,-0.3 -0.39,-0.49 0.05,-0.19 0.33,-0.27 0.6,-0.19 0.27,0.08 0.44,0.3 0.39,0.49 z m 0,0"
               id="path4889" /><path
               style="fill:#ffffff"
               inkscape:connector-curvature="0"
               class="cls-2"
               d="m 454.62,58.14 c 0,0.2 -0.22,0.36 -0.5,0.36 -0.28,0 -0.52,-0.15 -0.52,-0.34 0,-0.19 0.22,-0.36 0.51,-0.37 0.29,-0.01 0.51,0.16 0.51,0.35 z m 0,0"
               id="path4891" /><path
               style="fill:#ffffff"
               inkscape:connector-curvature="0"
               class="cls-2"
               d="m 456.44,57.83 c 0,0.19 -0.17,0.39 -0.45,0.44 -0.28,0.05 -0.53,-0.06 -0.56,-0.25 -0.03,-0.19 0.16,-0.4 0.44,-0.45 0.28,-0.05 0.53,0.07 0.57,0.26 z m 0,0"
               id="path4893" /></g></g><g
           id="Facebook-11"
           data-name="Facebook" /><g
           id="Dribbble-6"
           data-name="Dribbble" /><g
           id="Deviantart-11"
           data-name="Deviantart" /><g
           id="Behance-11"
           data-name="Behance" /></g></g></g></svg>